With: Jamie Bell, Andy Serkis and Daniel Craig

Nederlands gesproken,
De nieuwsgierige reporter Kuifje en zijn trouwe hondje Bobbie ontdekken dat een model van het prachtige oude zeilschip \\\\\\\'De Eenhoorn\\\\\\\' een geheim met zich meedraagt. Meegevoerd in een eeuwenoud mysterie, krijgt hij het aan de stok met de boosaardige Sacharin, die weet dat Kuifje een belangrijke aanwijzing bezit naar de grote schat van de snode piraat Scharlaken Rackham. Geholpen door de moedige Bobbie, de onstuimige kapitein Haddock en de stuntelige detectives Jansen en Janssen, reist Kuifje de halve wereld af, constant op de hielen gezeten door de vijand. Hij moet slimmer en sneller zijn dan de rest om het Geheim van de Eenhoorn te ontrafelen...

Dutch spoken,
Intrepid reporter Tintin and Captain Haddock set off on a treasure hunt for a sunken ship commanded by Haddock\\\\\\\'s ancestor. 

------------------------ Dutch Friends ------------------------
---------------------------------------------------------------
- Bezoek ook eens mijn vrienden op:  http://www.Film-Test.nl --
----- voor mijn Nederlandse Sync. ondertitels ---- en meer ----
------- http://www.Film-Test.nl ---- voor Films en meer -------
---------------------------------------------------------------

General
Complete name                    : G:\\\\\\\\Klambake\\\\\\\\The Adventures of Tintin\\\\\\\\The Adventures of Tintin.avi
Format                           : AVI
Format/Info                      : Audio Video Interleave
File size                        : 1.86 GiB
Duration                         : 1h 42mn
Overall bit rate                 : 2 595 Kbps

Video
ID                               : 0
Format                           : MPEG-4 Visual
Format profile                   : Simple@L3
Format settings, BVOP            : No
Format settings, QPel            : No
Format settings, GMC             : No warppoints
Format settings, Matrix          : Default (H.263)
Codec ID                         : XVID
Codec ID/Hint                    : XviD
Duration                         : 1h 42mn
Bit rate                         : 2 200 Kbps
Width                            : 720 pixels
Height                           : 304 pixels
Display aspect ratio             : 2.35:1
Frame rate                       : 25.000 fps
Color space                      : YUV
Chroma subsampling               : 4:2:0
Bit depth                        : 8 bits
Scan type                        : Progressive
Compression mode                 : Lossy
Bits/(Pixel*Frame)               : 0.402
Stream size                      : 1.58 GiB (85%)
Writing library                  : XviD 1.1.2 (UTC 2006-11-01)

Audio
ID                               : 1
Format                           : AC-3
Format/Info                      : Audio Coding 3
Mode extension                   : CM (complete main)
Codec ID                         : 2000
Duration                         : 1h 42mn
Bit rate mode                    : Constant
Bit rate                         : 384 Kbps
Channel(s)                       : 6 channels
Channel positions                : Front: L C R, Side: L R, LFE
Sampling rate                    : 48.0 KHz
Bit depth                        : 16 bits
Compression mode                 : Lossy
Stream size                      : 282 MiB (15%)
Alignment                        : Aligned on interleaves
Interleave, duration             : 32 ms (0.80 video frame)
